<svg width="69" height="86" viewBox="0 0 69 86" fill="none" xmlns="http://www.w3.org/2000/svg">
<path opacity="0.258824" fill-rule="evenodd" clip-rule="evenodd" d="M34.3143 10.8013C33.5982 5.23123 28.8385 0.927124 23.0739 0.927124C17.2736 0.927124 12.491 5.28448 11.8209 10.9045C10.6236 9.9783 9.12149 9.42712 7.49064 9.42712C3.57844 9.42712 0.40744 12.5984 0.40744 16.5105C0.40744 20.4224 3.57844 23.5938 7.49064 23.5938C8.03695 23.5938 8.5688 23.532 9.0796 23.4149C10.0164 26.7366 14.6569 29.2605 20.2403 29.2605C24.947 29.2605 28.9834 27.4673 30.6964 24.9146C32.7356 27.5377 36.1748 29.2605 40.0736 29.2605C46.3332 29.2605 51.407 24.8205 51.407 19.3439C51.407 13.867 46.3332 9.42712 40.0736 9.42712C37.971 9.42712 36.002 9.9282 34.3143 10.8013ZM1.82364 26.4272H0.40744V77.4271H0.549123C0.456213 77.8849 0.40744 78.3586 0.40744 78.8437C0.40744 82.7559 3.57844 85.9272 7.49064 85.9272H44.3238C48.2359 85.9272 51.407 82.7559 51.407 78.8437C51.407 78.3586 51.3583 77.8849 51.2654 77.4271H51.407V74.5939H57.0739V74.4934C57.5366 74.5596 58.0095 74.5939 58.4905 74.5939C63.9674 74.5939 68.4072 70.1541 68.4072 64.6772V44.844C68.4072 39.3671 63.9674 34.9271 58.4905 34.9271C58.0095 34.9271 57.5366 34.9613 57.0739 35.0275V34.9271H51.407V26.4272H51.2923C50.5067 31.2329 45.7835 34.927 40.0736 34.927C36.1748 34.927 32.7357 33.2043 30.6964 30.5813C28.9835 33.1341 24.9471 34.927 20.2403 34.927C14.6569 34.927 10.0164 32.4036 9.07961 29.0816C8.56881 29.1987 8.03695 29.2605 7.49064 29.2605C5.17321 29.2605 3.11587 28.1476 1.82364 26.4272ZM62.7403 49.0938C62.7403 45.9641 60.2034 43.4271 57.0739 43.4271H51.407V49.0938V60.4272V66.0938L57.0739 66.0938C60.2034 66.0938 62.7403 63.5567 62.7403 60.4272V49.0938ZM8.90714 40.5939H14.5738V71.7604H8.90714V40.5939ZM28.7404 40.5939H23.0739V71.7604H28.7404V40.5939ZM37.2404 40.5939H42.907V71.7604H37.2404V40.5939Z" fill="white"/>
</svg>
