<svg width="81" height="71" viewBox="0 0 81 71" fill="none" xmlns="http://www.w3.org/2000/svg">
<path fill-rule="evenodd" clip-rule="evenodd" d="M52.9072 0.927246H27.9072C26.5266 0.927246 25.4072 2.41945 25.4072 4.26035V10.0937C25.4072 10.3816 25.4346 10.6608 25.486 10.9272H7.90723C3.76493 10.9272 0.407227 14.2848 0.407227 18.427V63.4271C0.407227 67.5694 3.76493 70.9269 7.90723 70.9269H72.9072C77.0492 70.9269 80.4073 67.5694 80.4073 63.4271V18.427C80.4073 14.2848 77.0492 10.9272 72.9072 10.9272H55.3284C55.3799 10.6608 55.4072 10.3816 55.4072 10.0937V4.26035C55.4072 2.41945 54.2878 0.927246 52.9072 0.927246ZM40.4072 18.4271C52.8335 18.4271 62.9072 28.5007 62.9072 40.9272C62.9072 53.3535 52.8335 63.4272 40.4072 63.4272C27.9807 63.4272 17.9072 53.3535 17.9072 40.9272C17.9072 28.5007 27.9807 18.4271 40.4072 18.4271ZM55.4072 40.9272C55.4072 32.6429 48.6915 25.9271 40.4072 25.9271C32.1229 25.9271 25.4072 32.6429 25.4072 40.9272C25.4072 49.2115 32.1229 55.9272 40.4072 55.9272C48.6915 55.9272 55.4072 49.2115 55.4072 40.9272ZM40.4072 35.9272C43.1686 35.9272 45.4072 38.1658 45.4072 40.9272C45.4072 43.6886 43.1686 45.9271 40.4072 45.9271C37.6457 45.9271 35.4072 43.6886 35.4072 40.9272C35.4072 38.1658 37.6457 35.9272 40.4072 35.9272ZM50.4072 5.92706H30.4072V8.42726H50.4072V5.92706Z" fill="white"/>
</svg>
