<svg width="77" height="77" viewBox="0 0 77 77" fill="none" xmlns="http://www.w3.org/2000/svg">
<path fill-rule="evenodd" clip-rule="evenodd" d="M5.15757 0.927124H47.9076C50.5311 0.927124 52.6576 3.05392 52.6576 5.67712V62.6772C52.6576 65.3006 50.5311 67.4272 47.9076 67.4272H5.15757C2.53417 67.4272 0.407471 65.3006 0.407471 62.6772V5.67712C0.407471 3.05392 2.53417 0.927124 5.15757 0.927124ZM9.90747 69.8023V72.1772C9.90747 74.8004 12.0343 76.9271 14.6576 76.9271H71.6576C74.281 76.9271 76.4076 74.8004 76.4076 72.1772V29.4273C76.4076 26.8039 74.281 24.6774 71.6576 24.6774H55.0327V31.8023H66.9076V69.8023L55.0327 69.8023H9.90747ZM45.5326 8.05225H7.53265V57.9272H45.5326V8.05225ZM26.5325 60.3022C27.8443 60.3022 28.9073 61.3656 28.9073 62.6772C28.9073 63.9889 27.8443 65.0521 26.5325 65.0521C25.2208 65.0521 24.1575 63.9889 24.1575 62.6772C24.1575 61.3656 25.2208 60.3022 26.5325 60.3022ZM74.0325 50.8022C74.0325 49.4905 72.9694 48.4273 71.6576 48.4273C70.3459 48.4273 69.2825 49.4905 69.2825 50.8022C69.2825 52.114 70.3459 53.1771 71.6576 53.1771C72.9694 53.1771 74.0325 52.114 74.0325 50.8022Z" fill="white"/>
</svg>
