<svg width="52" height="52" viewBox="0 0 52 52" fill="none" xmlns="http://www.w3.org/2000/svg">
<path fill-rule="evenodd" clip-rule="evenodd" d="M26 0C40.3593 0 52 11.6406 52 26.0001C52 40.3595 40.3593 52.0001 26 52.0001C11.6405 52.0001 0 40.3595 0 26.0001C0 11.6406 11.6405 0 26 0Z" fill="#696B6A"/>
<path fill-rule="evenodd" clip-rule="evenodd" d="M36.1668 12C38.8361 12 41.0001 14.1586 41.0001 16.8214C41.0001 19.4843 38.8361 21.6429 36.1668 21.6429C34.7193 21.6429 33.4204 21.0082 32.5346 20.0026L21.4662 24.1175C21.5966 24.5537 21.6666 25.0159 21.6666 25.4943C21.6666 25.7824 21.6412 26.0645 21.5925 26.3387L32.1595 31.4819C33.0282 30.1999 34.4988 29.3572 36.1668 29.3572C38.8361 29.3572 41.0001 31.5158 41.0001 34.1785C41.0001 36.8414 38.8361 39.0001 36.1668 39.0001C33.5379 39.0001 31.3992 36.9064 31.3349 34.2994L20.2475 28.9029C19.3731 29.7723 18.1662 30.3099 16.8333 30.3099C14.164 30.3099 12 28.1539 12 25.4943C12 22.8346 14.164 20.6786 16.8333 20.6786C17.9347 20.6786 18.95 21.0456 19.7628 21.6636L31.3622 17.3512C31.3432 17.1772 31.3334 17.0005 31.3334 16.8214C31.3334 14.1586 33.4974 12 36.1668 12Z" fill="#272C2C"/>
</svg>
