<svg width="14" height="15" viewBox="0 0 14 15" fill="none" xmlns="http://www.w3.org/2000/svg">
<path fill-rule="evenodd" clip-rule="evenodd" d="M6.36624 0.955034C6.36624 0.955034 5.87884 0.927734 7.36844 0.927734C9.64334 0.927734 9.91424 3.58003 9.91424 3.58003C9.91424 3.58003 9.94134 6.36913 9.94134 7.02543C9.94134 7.68163 8.85604 8.12103 9.04754 7.92773C9.07464 7.90033 9.04754 9.67773 9.04754 9.67773L13.408 13.1776V14.9276H0.439942L0.412842 13.205L4.74124 9.65033V7.92773C4.74124 7.92773 3.87464 7.84563 3.87464 7.02543C3.87464 6.20513 3.87464 3.58003 3.87464 3.58003C3.87464 3.58003 4.19964 0.955034 6.36624 0.955034Z" fill="white"/>
</svg>
