<svg width="83" height="83" viewBox="0 0 83 83" fill="none" xmlns="http://www.w3.org/2000/svg">
<path fill-rule="evenodd" clip-rule="evenodd" d="M18.4037 34.192L51.6689 0.922852L61.386 10.641C59.631 13.3631 60.282 17.411 63.1073 20.2367C65.9326 23.062 69.98 23.7134 72.7018 21.958L82.4187 31.6761L77.3383 36.7571H79.8521V52.3011C76.9284 53.0141 74.728 56.1194 74.728 59.8421C74.728 63.5648 76.9284 66.6702 79.8521 67.3833V82.9271H31.1736L31.1691 82.9315L31.1647 82.9271H2.98602V67.3834C5.90982 66.6704 8.11053 63.565 8.11053 59.8421C8.11053 56.1193 5.90982 53.0139 2.98602 52.301V36.7571H74.728V34.192H68.8375C69.1442 32.6375 68.6953 30.9634 67.491 29.7588L53.5861 15.8523C51.666 13.9323 48.5534 13.9323 46.6335 15.8523L28.2959 34.192H18.4037ZM0.424026 52.1737L0.419434 52.1783L0.424026 52.1828V52.1737ZM43.9349 34.192H31.729L37.8319 28.0884L43.9349 34.192ZM65.4168 34.192H47.3513L39.5402 26.3799L46.6465 19.2729C48.5711 17.3482 51.6914 17.3482 53.6163 19.2729L64.0708 29.7285C65.2831 30.9411 65.7318 32.6282 65.4168 34.192ZM49.1057 44.4521H18.3593C15.5291 44.4521 13.2349 46.749 13.2349 49.5821V70.1022C13.2349 72.9355 15.5291 75.2321 18.3593 75.2321H49.1057H51.668H64.4791C67.3091 75.2321 69.6034 72.9355 69.6034 70.1022V49.5821C69.6034 46.749 67.3091 44.4521 64.4791 44.4521H51.668H49.1057ZM49.1057 47.0172H20.9216C18.0911 47.0172 15.7971 49.3139 15.7971 52.147V67.5372C15.7971 70.3704 18.0911 72.6671 20.9216 72.6671H49.1057V47.0172ZM51.668 72.6671H61.917C64.7469 72.6671 67.0411 70.3704 67.0411 67.5372V52.147C67.0411 49.3139 64.7469 47.0172 61.917 47.0172H51.668V72.6671Z" fill="white"/>
</svg>
