<svg width="52" height="52" viewBox="0 0 52 52" fill="none" xmlns="http://www.w3.org/2000/svg">
<path fill-rule="evenodd" clip-rule="evenodd" d="M26 0C40.3594 0 51.9999 11.6406 51.9999 26.0001C51.9999 40.3595 40.3594 52.0001 26 52.0001C11.6406 52.0001 0 40.3595 0 26.0001C0 11.6406 11.6406 0 26 0Z" fill="#696B6A"/>
<path fill-rule="evenodd" clip-rule="evenodd" d="M40.9062 15.2375L38.1024 18.475C38.1024 18.475 38.1024 18.1816 38.1024 19.0146C38.1024 19.6063 38.0199 20.1716 37.9005 20.7204C37.8352 25.1742 36.6066 31.0803 31.5605 35.7418C21.6344 44.9114 11 36.821 11 36.821C19.4112 36.821 19.4112 33.5835 19.4112 33.5835C17.5419 33.5835 13.8038 29.2669 13.8038 29.2669C14.7383 30.3459 16.6074 29.2669 16.6074 29.2669C11.9345 26.0293 11.9345 22.7918 11.9345 22.7918C12.8691 23.871 14.7383 22.7918 14.7383 22.7918C10.0655 18.475 12.8691 13.0791 12.8691 13.0791C13.8038 18.475 25.9531 20.6333 25.9531 20.6333L26.1077 20.544C26.0123 20.0505 25.9531 19.0019 25.9531 18.475C25.9531 14.601 28.6728 12 32.0278 12C33.8743 12 35.5083 12.9718 36.6223 14.4734L37.1679 14.1584L39.9717 12L38.1024 16.3167L40.9062 15.2375Z" fill="#252825"/>
</svg>
