<svg width="52" height="52" viewBox="0 0 52 52" fill="none" xmlns="http://www.w3.org/2000/svg">
<path fill-rule="evenodd" clip-rule="evenodd" d="M26 0C40.3594 0 51.9999 11.6406 51.9999 26.0001C51.9999 40.3595 40.3594 52.0001 26 52.0001C11.6406 52.0001 0 40.3595 0 26.0001C0 11.6406 11.6406 0 26 0Z" fill="#696B6A"/>
<path fill-rule="evenodd" clip-rule="evenodd" d="M26.4998 9C35.6127 9 42.9999 16.3873 42.9999 25.5C42.9999 34.6128 35.6127 42 26.4998 42C17.3873 42 10 34.6128 10 25.5C10 16.3873 17.3873 9 26.4998 9ZM26.4998 12.2999C29.612 12.2999 32.4726 13.3769 34.7293 15.1786C33.7946 16.2281 31.7124 18.3375 28.4864 20.3793C27.1092 17.8155 25.4227 15.1822 23.3661 12.6742C24.3706 12.4296 25.4201 12.2999 26.4998 12.2999ZM33.7869 20.0135C34.8108 19.2283 35.8618 18.3658 36.9381 17.4191C37.7555 18.4734 38.4167 19.6549 38.8869 20.9288C37.065 20.3646 35.3669 20.0769 33.7869 20.0135ZM26.0084 21.7309C25.7341 21.8743 25.4658 22.0248 25.2035 22.1816C21.2792 23.9592 16.6899 24.6715 13.3319 24.5738C13.6699 19.6969 16.6571 15.5494 20.8643 13.56C22.0019 15.1043 23.9944 17.9841 26.0084 21.7309ZM19.7778 27.1183C17.8868 29.5567 16.6823 32.0497 16.0488 33.5642C14.7376 31.8673 13.8304 29.8423 13.4715 27.6334C14.9504 27.7691 17.0858 27.7426 19.7778 27.1183ZM18.0527 35.6437C20.6695 29.5161 24.0876 26.2538 27.4758 24.6245C29.2907 28.4312 30.9519 32.8734 31.8126 37.5873C30.1871 38.3028 28.3899 38.7 26.4998 38.7C23.2867 38.7 20.3418 37.552 18.0527 35.6437ZM30.1087 23.6603C34.1505 22.6112 37.8256 23.5102 39.6291 24.1255C39.6759 24.5773 39.6998 25.0358 39.6998 25.4999C39.6998 29.935 37.5127 33.8591 34.1581 36.2527C33.9499 35.0771 32.9208 29.8533 30.1087 23.6603Z" fill="#252825"/>
</svg>
